{
    "asset" : {
        "generator" : "Khronos glTF Blender I/O v1.1.46",
        "version" : "2.0"
    },
    "scene" : 0,
    "scenes" : [
        {
            "name" : "Scene",
            "nodes" : [
                0
            ]
        }
    ],
    "nodes" : [
        {
            "mesh" : 0,
            "name" : "Tree1_1",
            "rotation" : [
                0,
                0,
                -0.5190286636352539,
                0.8547568321228027
            ],
            "scale" : [
                1.161731481552124,
                1.161731481552124,
                1.161731481552124
            ]
        }
    ],
    "materials" : [
        {
            "doubleSided" : true,
            "emissiveFactor" : [
                0,
                0,
                0
            ],
            "name" : "Tree1_2",
            "pbrMetallicRoughness" : {
                "baseColorFactor" : [
                    0.12977032363414764,
                    0.06692320853471756,
                    0.01792529970407486,
                    1
                ],
                "metallicFactor" : 0,
                "roughnessFactor" : 0.5
            }
        },
        {
            "doubleSided" : true,
            "emissiveFactor" : [
                0,
                0,
                0
            ],
            "name" : "Tree1",
            "pbrMetallicRoughness" : {
                "baseColorFactor" : [
                    0.08708316087722778,
                    0.1921054571866989,
                    0.012816949747502804,
                    1
                ],
                "metallicFactor" : 0,
                "roughnessFactor" : 0.5
            }
        }
    ],
    "meshes" : [
        {
            "name" : "Cube.002",
            "primitives" : [
                {
                    "attributes" : {
                        "POSITION" : 0,
                        "NORMAL" : 1,
                        "TEXCOORD_0" : 2
                    },
                    "indices" : 3,
                    "material" : 0
                },
                {
                    "attributes" : {
                        "POSITION" : 4,
                        "NORMAL" : 5,
                        "TEXCOORD_0" : 6
                    },
                    "indices" : 7,
                    "material" : 1
                }
            ]
        }
    ],
    "accessors" : [
        {
            "bufferView" : 0,
            "componentType" : 5126,
            "count" : 654,
            "max" : [
                1.294952392578125,
                3.953754186630249,
                0.8122736215591431
            ],
            "min" : [
                -1.3160040378570557,
                -6.777965609217063e-05,
                -0.9535707235336304
            ],
            "type" : "VEC3"
        },
        {
            "bufferView" : 1,
            "componentType" : 5126,
            "count" : 654,
            "type" : "VEC3"
        },
        {
            "bufferView" : 2,
            "componentType" : 5126,
            "count" : 654,
            "type" : "VEC2"
        },
        {
            "bufferView" : 3,
            "componentType" : 5123,
            "count" : 654,
            "type" : "SCALAR"
        },
        {
            "bufferView" : 4,
            "componentType" : 5126,
            "count" : 1122,
            "max" : [
                2.373746871948242,
                6.317238807678223,
                1.7623484134674072
            ],
            "min" : [
                -2.7883806228637695,
                1.7795408964157104,
                -1.6480882167816162
            ],
            "type" : "VEC3"
        },
        {
            "bufferView" : 5,
            "componentType" : 5126,
            "count" : 1122,
            "type" : "VEC3"
        },
        {
            "bufferView" : 6,
            "componentType" : 5126,
            "count" : 1122,
            "type" : "VEC2"
        },
        {
            "bufferView" : 7,
            "componentType" : 5123,
            "count" : 1122,
            "type" : "SCALAR"
        }
    ],
    "bufferViews" : [
        {
            "buffer" : 0,
            "byteLength" : 7848,
            "byteOffset" : 0
        },
        {
            "buffer" : 0,
            "byteLength" : 7848,
            "byteOffset" : 7848
        },
        {
            "buffer" : 0,
            "byteLength" : 5232,
            "byteOffset" : 15696
        },
        {
            "buffer" : 0,
            "byteLength" : 1308,
            "byteOffset" : 20928
        },
        {
            "buffer" : 0,
            "byteLength" : 13464,
            "byteOffset" : 22236
        },
        {
            "buffer" : 0,
            "byteLength" : 13464,
            "byteOffset" : 35700
        },
        {
            "buffer" : 0,
            "byteLength" : 8976,
            "byteOffset" : 49164
        },
        {
            "buffer" : 0,
            "byteLength" : 2244,
            "byteOffset" : 58140
        }
    ],
    "buffers" : [
        {
            "byteLength" : 60384,
            "uri" : "data:application/octet-stream;base64,"
        }
    ]
}
