{
    "asset" : {
        "generator" : "Khronos glTF Blender I/O v1.1.46",
        "version" : "2.0"
    },
    "scene" : 0,
    "scenes" : [
        {
            "name" : "Scene",
            "nodes" : [
                0
            ]
        }
    ],
    "nodes" : [
        {
            "mesh" : 0,
            "name" : "Tree1_1",
            "scale" : [
                1.161731481552124,
                1.161731481552124,
                1.161731481552124
            ]
        }
    ],
    "materials" : [
        {
            "doubleSided" : true,
            "emissiveFactor" : [
                0,
                0,
                0
            ],
            "name" : "Tree1_2",
            "pbrMetallicRoughness" : {
                "baseColorFactor" : [
                    0.12977032363414764,
                    0.06692320853471756,
                    0.01792529970407486,
                    1
                ],
                "metallicFactor" : 0,
                "roughnessFactor" : 0.5
            }
        },
        {
            "doubleSided" : true,
            "emissiveFactor" : [
                0,
                0,
                0
            ],
            "name" : "Tree1",
            "pbrMetallicRoughness" : {
                "baseColorFactor" : [
                    0.08708316087722778,
                    0.1921054571866989,
                    0.012816949747502804,
                    1
                ],
                "metallicFactor" : 0,
                "roughnessFactor" : 0.5
            }
        }
    ],
    "meshes" : [
        {
            "name" : "Cube.002",
            "primitives" : [
                {
                    "attributes" : {
                        "POSITION" : 0,
                        "NORMAL" : 1,
                        "TEXCOORD_0" : 2
                    },
                    "indices" : 3,
                    "material" : 0
                },
                {
                    "attributes" : {
                        "POSITION" : 4,
                        "NORMAL" : 5,
                        "TEXCOORD_0" : 6
                    },
                    "indices" : 7,
                    "material" : 1
                }
            ]
        }
    ],
    "accessors" : [
        {
            "bufferView" : 0,
            "componentType" : 5126,
            "count" : 12,
            "max" : [
                0.519016444683075,
                3.380682945251465,
                0.18688543140888214
            ],
            "min" : [
                -0.8029890656471252,
                1.2262670993804932,
                -0.4020536541938782
            ],
            "type" : "VEC3"
        },
        {
            "bufferView" : 1,
            "componentType" : 5126,
            "count" : 12,
            "type" : "VEC3"
        },
        {
            "bufferView" : 2,
            "componentType" : 5126,
            "count" : 12,
            "type" : "VEC2"
        },
        {
            "bufferView" : 3,
            "componentType" : 5123,
            "count" : 12,
            "type" : "SCALAR"
        },
        {
            "bufferView" : 4,
            "componentType" : 5126,
            "count" : 30,
            "max" : [
                1.962157964706421,
                6.112246990203857,
                1.3527265787124634
            ],
            "min" : [
                -2.9036636352539062,
                1.8419804573059082,
                -1.394728660583496
            ],
            "type" : "VEC3"
        },
        {
            "bufferView" : 5,
            "componentType" : 5126,
            "count" : 30,
            "type" : "VEC3"
        },
        {
            "bufferView" : 6,
            "componentType" : 5126,
            "count" : 30,
            "type" : "VEC2"
        },
        {
            "bufferView" : 7,
            "componentType" : 5123,
            "count" : 30,
            "type" : "SCALAR"
        }
    ],
    "bufferViews" : [
        {
            "buffer" : 0,
            "byteLength" : 144,
            "byteOffset" : 0
        },
        {
            "buffer" : 0,
            "byteLength" : 144,
            "byteOffset" : 144
        },
        {
            "buffer" : 0,
            "byteLength" : 96,
            "byteOffset" : 288
        },
        {
            "buffer" : 0,
            "byteLength" : 24,
            "byteOffset" : 384
        },
        {
            "buffer" : 0,
            "byteLength" : 360,
            "byteOffset" : 408
        },
        {
            "buffer" : 0,
            "byteLength" : 360,
            "byteOffset" : 768
        },
        {
            "buffer" : 0,
            "byteLength" : 240,
            "byteOffset" : 1128
        },
        {
            "buffer" : 0,
            "byteLength" : 60,
            "byteOffset" : 1368
        }
    ],
    "buffers" : [
        {
            "byteLength" : 1428,
            "uri" : "data:application/octet-stream;base64,"
        }
    ]
}
