{
    "asset" : {
        "generator" : "Khronos glTF Blender I/O v1.1.46",
        "version" : "2.0"
    },
    "scene" : 0,
    "scenes" : [
        {
            "name" : "Scene",
            "nodes" : [
                0
            ]
        }
    ],
    "nodes" : [
        {
            "mesh" : 0,
            "name" : "Tree1_1",
            "scale" : [
                1.161731481552124,
                1.161731481552124,
                1.161731481552124
            ]
        }
    ],
    "materials" : [
        {
            "doubleSided" : true,
            "emissiveFactor" : [
                0,
                0,
                0
            ],
            "name" : "Tree1_2",
            "pbrMetallicRoughness" : {
                "baseColorFactor" : [
                    0.12977032363414764,
                    0.06692320853471756,
                    0.01792529970407486,
                    1
                ],
                "metallicFactor" : 0,
                "roughnessFactor" : 0.5
            }
        },
        {
            "doubleSided" : true,
            "emissiveFactor" : [
                0,
                0,
                0
            ],
            "name" : "Tree1",
            "pbrMetallicRoughness" : {
                "baseColorFactor" : [
                    0.08708316087722778,
                    0.1921054571866989,
                    0.012816949747502804,
                    1
                ],
                "metallicFactor" : 0,
                "roughnessFactor" : 0.5
            }
        }
    ],
    "meshes" : [
        {
            "name" : "Cube.002",
            "primitives" : [
                {
                    "attributes" : {
                        "POSITION" : 0,
                        "NORMAL" : 1,
                        "TEXCOORD_0" : 2
                    },
                    "indices" : 3,
                    "material" : 0
                },
                {
                    "attributes" : {
                        "POSITION" : 4,
                        "NORMAL" : 5,
                        "TEXCOORD_0" : 6
                    },
                    "indices" : 7,
                    "material" : 1
                }
            ]
        }
    ],
    "accessors" : [
        {
            "bufferView" : 0,
            "componentType" : 5126,
            "count" : 366,
            "max" : [
                1.2658246755599976,
                3.9560253620147705,
                0.8129405975341797
            ],
            "min" : [
                -1.2898900508880615,
                -6.777965609217063e-05,
                -0.9306461811065674
            ],
            "type" : "VEC3"
        },
        {
            "bufferView" : 1,
            "componentType" : 5126,
            "count" : 366,
            "type" : "VEC3"
        },
        {
            "bufferView" : 2,
            "componentType" : 5126,
            "count" : 366,
            "type" : "VEC2"
        },
        {
            "bufferView" : 3,
            "componentType" : 5123,
            "count" : 366,
            "type" : "SCALAR"
        },
        {
            "bufferView" : 4,
            "componentType" : 5126,
            "count" : 696,
            "max" : [
                2.3770551681518555,
                6.328189373016357,
                1.7623484134674072
            ],
            "min" : [
                -2.7883806228637695,
                1.7795408964157104,
                -1.6589418649673462
            ],
            "type" : "VEC3"
        },
        {
            "bufferView" : 5,
            "componentType" : 5126,
            "count" : 696,
            "type" : "VEC3"
        },
        {
            "bufferView" : 6,
            "componentType" : 5126,
            "count" : 696,
            "type" : "VEC2"
        },
        {
            "bufferView" : 7,
            "componentType" : 5123,
            "count" : 696,
            "type" : "SCALAR"
        }
    ],
    "bufferViews" : [
        {
            "buffer" : 0,
            "byteLength" : 4392,
            "byteOffset" : 0
        },
        {
            "buffer" : 0,
            "byteLength" : 4392,
            "byteOffset" : 4392
        },
        {
            "buffer" : 0,
            "byteLength" : 2928,
            "byteOffset" : 8784
        },
        {
            "buffer" : 0,
            "byteLength" : 732,
            "byteOffset" : 11712
        },
        {
            "buffer" : 0,
            "byteLength" : 8352,
            "byteOffset" : 12444
        },
        {
            "buffer" : 0,
            "byteLength" : 8352,
            "byteOffset" : 20796
        },
        {
            "buffer" : 0,
            "byteLength" : 5568,
            "byteOffset" : 29148
        },
        {
            "buffer" : 0,
            "byteLength" : 1392,
            "byteOffset" : 34716
        }
    ],
    "buffers" : [
        {
            "byteLength" : 36108,
            "uri" : "data:application/octet-stream;base64,"
        }
    ]
}
