{
    "asset" : {
        "generator" : "Khronos glTF Blender I/O v1.1.46",
        "version" : "2.0"
    },
    "scene" : 0,
    "scenes" : [
        {
            "name" : "Scene",
            "nodes" : [
                0
            ]
        }
    ],
    "nodes" : [
        {
            "mesh" : 0,
            "name" : "Plane",
            "scale" : [
                0.015603320673108101,
                0.015603320673108101,
                0.015603320673108101
            ]
        }
    ],
    "materials" : [
        {
            "doubleSided" : true,
            "emissiveFactor" : [
                0,
                0,
                0
            ],
            "name" : "palette",
            "pbrMetallicRoughness" : {
                "baseColorTexture" : {
                    "index" : 0,
                    "texCoord" : 0
                },
                "metallicFactor" : 0,
                "roughnessFactor" : 0.5
            }
        }
    ],
    "meshes" : [
        {
            "name" : "Plane",
            "primitives" : [
                {
                    "attributes" : {
                        "POSITION" : 0,
                        "NORMAL" : 1,
                        "TEXCOORD_0" : 2
                    },
                    "indices" : 3,
                    "material" : 0
                }
            ]
        }
    ],
    "textures" : [
        {
            "source" : 0
        }
    ],
    "images" : [
        {
            "bufferView" : 4,
            "mimeType" : "image/png",
            "name" : "trop-rain.darkgreen"
        }
    ],
    "accessors" : [
        {
            "bufferView" : 0,
            "componentType" : 5126,
            "count" : 418,
            "max" : [
                23.742658615112305,
                59.6838493347168,
                25.377756118774414
            ],
            "min" : [
                -25.23672866821289,
                0,
                -22.526268005371094
            ],
            "type" : "VEC3"
        },
        {
            "bufferView" : 1,
            "componentType" : 5126,
            "count" : 418,
            "type" : "VEC3"
        },
        {
            "bufferView" : 2,
            "componentType" : 5126,
            "count" : 418,
            "type" : "VEC2"
        },
        {
            "bufferView" : 3,
            "componentType" : 5123,
            "count" : 420,
            "type" : "SCALAR"
        }
    ],
    "bufferViews" : [
        {
            "buffer" : 0,
            "byteLength" : 5016,
            "byteOffset" : 0
        },
        {
            "buffer" : 0,
            "byteLength" : 5016,
            "byteOffset" : 5016
        },
        {
            "buffer" : 0,
            "byteLength" : 3344,
            "byteOffset" : 10032
        },
        {
            "buffer" : 0,
            "byteLength" : 840,
            "byteOffset" : 13376
        },
        {
            "buffer" : 0,
            "byteLength" : 133,
            "byteOffset" : 14216
        }
    ],
    "buffers" : [
        {
            "byteLength" : 14352,
            "uri" : "data:application/octet-stream;base64,"
        }
    ]
}
