<svg id="Layer_1" data-name="Layer 1" xmlns="http://www.w3.org/2000/svg" viewBox="0 0 30.3 27.35"><path d="M2.33,8.85A8.86,8.86,0,0,1,2.64,6s1.91.46,6.51-1.81,7.08-1.88,7.08-1.88,3.08-.26,7.71,2,6.39,1,6.39,1a6.5,6.5,0,0,1,.82,2.13c0,.63-2.42.89-2.42.89s-1.48.16-5.06-1.56a18.63,18.63,0,0,0-7.4-1.67A17.1,17.1,0,0,0,9.81,6.62C7,8.05,6.54,8.47,4.94,8.85A5,5,0,0,1,2.33,8.85Z" transform="translate(-0.85 -2.32)" style="fill:#fff"/><path d="M25,16.28c.55-4.09,6-4.12,6-4.12A4.85,4.85,0,0,0,29.9,9.89a8.91,8.91,0,0,1-4.75-.5c-7.59-3.6-8.42-2.93-8.42-2.93C13.16,6.16,2,10.78,2,10.78v2a62.51,62.51,0,0,1,7,2.6,18.63,18.63,0,0,0,6.27,1.8A11.47,11.47,0,0,0,19.19,17a45.28,45.28,0,0,1-8,7.93s-6,4-7.75,0,.63-4.41.63-4.41S3.85,23.23,5.8,23s1.67-2.35,1.67-2.35a2.6,2.6,0,0,0-2.26-2.77,3.08,3.08,0,0,0-3.46,1.55c-.24,0-2.61,5.83,1.48,8.68s9.85-1.8,9.85-1.8a40.58,40.58,0,0,0,7.44-7.42c2.8-3.94,3.07-3.48,3.07-3.48C18.73,29.81,21.7,29.68,21.7,29.68c2.39-3.27,5.92-9.12,5.92-9.12S24.41,20.37,25,16.28Zm-8.81-1.56c-6.35,0-9.7-2.85-9.7-2.85,4.83-2.44,7.75-2.6,7.75-2.6-.08.75-.31,3.18,2.3,3.39S18.8,9.27,18.8,9.27c1.76.21,6.55,2.6,6.55,2.6S22.5,14.68,16.16,14.72Z" transform="translate(-0.85 -2.32)" style="fill:#fff"/></svg>