{
    "asset" : {
        "generator" : "Khronos glTF Blender I/O v1.1.46",
        "version" : "2.0"
    },
    "scene" : 0,
    "scenes" : [
        {
            "name" : "Scene",
            "nodes" : [
                0,
                1,
                2
            ]
        }
    ],
    "nodes" : [
        {
            "mesh" : 0,
            "name" : "walls",
            "rotation" : [
                0,
                -0.7071064710617065,
                0,
                0.7071071267127991
            ],
            "scale" : [
                0.05275940150022507,
                0.15750649571418762,
                0.23396402597427368
            ],
            "translation" : [
                0,
                0,
                1.3000000715255737
            ]
        },
        {
            "mesh" : 1,
            "name" : "mound"
        },
        {
            "mesh" : 2,
            "name" : "stronghold",
            "scale" : [
                0.43441152572631836,
                0.43441152572631836,
                0.43441152572631836
            ],
            "translation" : [
                0,
                0.2499999850988388,
                0
            ]
        }
    ],
    "materials" : [
        {
            "doubleSided" : true,
            "emissiveFactor" : [
                0,
                0,
                0
            ],
            "name" : "palisade.tower.palette",
            "pbrMetallicRoughness" : {
                "baseColorTexture" : {
                    "index" : 0,
                    "texCoord" : 0
                },
                "metallicFactor" : 0,
                "roughnessFactor" : 0.5
            }
        },
        {
            "doubleSided" : true,
            "emissiveFactor" : [
                0,
                0,
                0
            ],
            "name" : "ground",
            "pbrMetallicRoughness" : {
                "baseColorFactor" : [
                    0.05850633606314659,
                    0.10653529316186905,
                    0,
                    1
                ],
                "metallicFactor" : 0,
                "roughnessFactor" : 0.5
            }
        }
    ],
    "meshes" : [
        {
            "name" : "Cube.016",
            "primitives" : [
                {
                    "attributes" : {
                        "POSITION" : 0,
                        "NORMAL" : 1,
                        "TEXCOORD_0" : 2,
                        "JOINTS_0" : 3,
                        "WEIGHTS_0" : 4
                    },
                    "indices" : 5,
                    "material" : 0
                }
            ]
        },
        {
            "name" : "Plane",
            "primitives" : [
                {
                    "attributes" : {
                        "POSITION" : 6,
                        "NORMAL" : 7,
                        "TEXCOORD_0" : 8
                    },
                    "indices" : 9,
                    "material" : 1
                }
            ]
        },
        {
            "name" : "Cube",
            "primitives" : [
                {
                    "attributes" : {
                        "POSITION" : 10,
                        "NORMAL" : 11,
                        "TEXCOORD_0" : 12
                    },
                    "indices" : 13,
                    "material" : 0
                }
            ]
        }
    ],
    "textures" : [
        {
            "source" : 0
        }
    ],
    "images" : [
        {
            "bufferView" : 6,
            "mimeType" : "image/png",
            "name" : "palisade.tower"
        }
    ],
    "accessors" : [
        {
            "bufferView" : 0,
            "componentType" : 5126,
            "count" : 6269,
            "max" : [
                3.798578977584839,
                5.072393894195557,
                6.412992000579834
            ],
            "min" : [
                -53.07889938354492,
                -0.3809365928173065,
                -6.413003921508789
            ],
            "type" : "VEC3"
        },
        {
            "bufferView" : 1,
            "componentType" : 5126,
            "count" : 6269,
            "type" : "VEC3"
        },
        {
            "bufferView" : 2,
            "componentType" : 5126,
            "count" : 6269,
            "type" : "VEC2"
        },
        {
            "bufferView" : 3,
            "componentType" : 5123,
            "count" : 6269,
            "type" : "VEC4"
        },
        {
            "bufferView" : 4,
            "componentType" : 5126,
            "count" : 6269,
            "type" : "VEC4"
        },
        {
            "bufferView" : 5,
            "componentType" : 5123,
            "count" : 7062,
            "type" : "SCALAR"
        },
        {
            "bufferView" : 7,
            "componentType" : 5126,
            "count" : 141,
            "max" : [
                1.2962427139282227,
                0.2499999850988388,
                1.2962427139282227
            ],
            "min" : [
                -1.2962427139282227,
                0,
                -1.2962427139282227
            ],
            "type" : "VEC3"
        },
        {
            "bufferView" : 8,
            "componentType" : 5126,
            "count" : 141,
            "type" : "VEC3"
        },
        {
            "bufferView" : 9,
            "componentType" : 5126,
            "count" : 141,
            "type" : "VEC2"
        },
        {
            "bufferView" : 10,
            "componentType" : 5123,
            "count" : 150,
            "type" : "SCALAR"
        },
        {
            "bufferView" : 11,
            "componentType" : 5126,
            "count" : 360,
            "max" : [
                1.1514616012573242,
                1.9542183876037598,
                1.2053097486495972
            ],
            "min" : [
                -0.9212636947631836,
                -0.1566646844148636,
                -1.1519300937652588
            ],
            "type" : "VEC3"
        },
        {
            "bufferView" : 12,
            "componentType" : 5126,
            "count" : 360,
            "type" : "VEC3"
        },
        {
            "bufferView" : 13,
            "componentType" : 5126,
            "count" : 360,
            "type" : "VEC2"
        },
        {
            "bufferView" : 14,
            "componentType" : 5123,
            "count" : 432,
            "type" : "SCALAR"
        }
    ],
    "bufferViews" : [
        {
            "buffer" : 0,
            "byteLength" : 75228,
            "byteOffset" : 0
        },
        {
            "buffer" : 0,
            "byteLength" : 75228,
            "byteOffset" : 75228
        },
        {
            "buffer" : 0,
            "byteLength" : 50152,
            "byteOffset" : 150456
        },
        {
            "buffer" : 0,
            "byteLength" : 50152,
            "byteOffset" : 200608
        },
        {
            "buffer" : 0,
            "byteLength" : 100304,
            "byteOffset" : 250760
        },
        {
            "buffer" : 0,
            "byteLength" : 14124,
            "byteOffset" : 351064
        },
        {
            "buffer" : 0,
            "byteLength" : 166,
            "byteOffset" : 365188
        },
        {
            "buffer" : 0,
            "byteLength" : 1692,
            "byteOffset" : 365356
        },
        {
            "buffer" : 0,
            "byteLength" : 1692,
            "byteOffset" : 367048
        },
        {
            "buffer" : 0,
            "byteLength" : 1128,
            "byteOffset" : 368740
        },
        {
            "buffer" : 0,
            "byteLength" : 300,
            "byteOffset" : 369868
        },
        {
            "buffer" : 0,
            "byteLength" : 4320,
            "byteOffset" : 370168
        },
        {
            "buffer" : 0,
            "byteLength" : 4320,
            "byteOffset" : 374488
        },
        {
            "buffer" : 0,
            "byteLength" : 2880,
            "byteOffset" : 378808
        },
        {
            "buffer" : 0,
            "byteLength" : 864,
            "byteOffset" : 381688
        }
    ],
    "buffers" : [
        {
            "byteLength" : 382552,
            "uri" : "data:application/octet-stream;base64,"
        }
    ]
}
