{
    "asset" : {
        "generator" : "Khronos glTF Blender I/O v1.1.46",
        "version" : "2.0"
    },
    "scene" : 0,
    "scenes" : [
        {
            "name" : "Scene",
            "nodes" : [
                0
            ]
        }
    ],
    "nodes" : [
        {
            "mesh" : 0,
            "name" : "Tree5_3",
            "rotation" : [
                0.024980055168271065,
                -0.997887372970581,
                -0.007871948182582855,
                0.05945451557636261
            ],
            "scale" : [
                0.46004900336265564,
                0.5980338454246521,
                0.46024709939956665
            ]
        }
    ],
    "materials" : [
        {
            "doubleSided" : true,
            "emissiveFactor" : [
                0,
                0,
                0
            ],
            "name" : "palette",
            "pbrMetallicRoughness" : {
                "baseColorTexture" : {
                    "index" : 0,
                    "texCoord" : 0
                },
                "metallicFactor" : 0,
                "roughnessFactor" : 0.5
            }
        }
    ],
    "meshes" : [
        {
            "name" : "Cylinder.062",
            "primitives" : [
                {
                    "attributes" : {
                        "POSITION" : 0,
                        "NORMAL" : 1,
                        "TEXCOORD_0" : 2
                    },
                    "indices" : 3,
                    "material" : 0
                }
            ]
        }
    ],
    "textures" : [
        {
            "source" : 0
        }
    ],
    "images" : [
        {
            "bufferView" : 4,
            "mimeType" : "image/png",
            "name" : "taiga.darkgreen"
        }
    ],
    "accessors" : [
        {
            "bufferView" : 0,
            "componentType" : 5126,
            "count" : 958,
            "max" : [
                1.4242161512374878,
                13.503790855407715,
                2.015831708908081
            ],
            "min" : [
                -2.71596097946167,
                -0.21332089602947235,
                -1.9339990615844727
            ],
            "type" : "VEC3"
        },
        {
            "bufferView" : 1,
            "componentType" : 5126,
            "count" : 958,
            "type" : "VEC3"
        },
        {
            "bufferView" : 2,
            "componentType" : 5126,
            "count" : 958,
            "type" : "VEC2"
        },
        {
            "bufferView" : 3,
            "componentType" : 5123,
            "count" : 1338,
            "type" : "SCALAR"
        }
    ],
    "bufferViews" : [
        {
            "buffer" : 0,
            "byteLength" : 11496,
            "byteOffset" : 0
        },
        {
            "buffer" : 0,
            "byteLength" : 11496,
            "byteOffset" : 11496
        },
        {
            "buffer" : 0,
            "byteLength" : 7664,
            "byteOffset" : 22992
        },
        {
            "buffer" : 0,
            "byteLength" : 2676,
            "byteOffset" : 30656
        },
        {
            "buffer" : 0,
            "byteLength" : 135,
            "byteOffset" : 33332
        }
    ],
    "buffers" : [
        {
            "byteLength" : 33468,
            "uri" : "data:application/octet-stream;base64,"
        }
    ]
}
