{
    "asset" : {
        "generator" : "Khronos glTF Blender I/O v1.1.46",
        "version" : "2.0"
    },
    "scene" : 0,
    "scenes" : [
        {
            "name" : "Scene",
            "nodes" : [
                0
            ]
        }
    ],
    "nodes" : [
        {
            "mesh" : 0,
            "name" : "Tree1_2",
            "rotation" : [
                0,
                -0.896722137928009,
                0,
                0.4425939917564392
            ],
            "scale" : [
                1.0403220653533936,
                1.0403220653533936,
                1.0403220653533936
            ]
        }
    ],
    "materials" : [
        {
            "doubleSided" : true,
            "emissiveFactor" : [
                0,
                0,
                0
            ],
            "name" : "palette",
            "pbrMetallicRoughness" : {
                "baseColorTexture" : {
                    "index" : 0,
                    "texCoord" : 0
                },
                "metallicFactor" : 0,
                "roughnessFactor" : 0.5
            }
        }
    ],
    "meshes" : [
        {
            "name" : "Cube.001",
            "primitives" : [
                {
                    "attributes" : {
                        "POSITION" : 0,
                        "NORMAL" : 1,
                        "TEXCOORD_0" : 2
                    },
                    "indices" : 3,
                    "material" : 0
                }
            ]
        }
    ],
    "textures" : [
        {
            "source" : 0
        }
    ],
    "images" : [
        {
            "bufferView" : 4,
            "mimeType" : "image/png",
            "name" : "temp-decid"
        }
    ],
    "accessors" : [
        {
            "bufferView" : 0,
            "componentType" : 5126,
            "count" : 732,
            "max" : [
                1.659916877746582,
                5.710947036743164,
                1.3226486444473267
            ],
            "min" : [
                -1.4537636041641235,
                1.186512872664025e-05,
                -1.090550422668457
            ],
            "type" : "VEC3"
        },
        {
            "bufferView" : 1,
            "componentType" : 5126,
            "count" : 732,
            "type" : "VEC3"
        },
        {
            "bufferView" : 2,
            "componentType" : 5126,
            "count" : 732,
            "type" : "VEC2"
        },
        {
            "bufferView" : 3,
            "componentType" : 5123,
            "count" : 732,
            "type" : "SCALAR"
        }
    ],
    "bufferViews" : [
        {
            "buffer" : 0,
            "byteLength" : 8784,
            "byteOffset" : 0
        },
        {
            "buffer" : 0,
            "byteLength" : 8784,
            "byteOffset" : 8784
        },
        {
            "buffer" : 0,
            "byteLength" : 5856,
            "byteOffset" : 17568
        },
        {
            "buffer" : 0,
            "byteLength" : 1464,
            "byteOffset" : 23424
        },
        {
            "buffer" : 0,
            "byteLength" : 134,
            "byteOffset" : 24888
        }
    ],
    "buffers" : [
        {
            "byteLength" : 25024,
            "uri" : "data:application/octet-stream;base64,"
        }
    ]
}
