{
    "asset" : {
        "generator" : "Khronos glTF Blender I/O v1.1.46",
        "version" : "2.0"
    },
    "scene" : 0,
    "scenes" : [
        {
            "name" : "Scene",
            "nodes" : [
                0
            ]
        }
    ],
    "nodes" : [
        {
            "mesh" : 0,
            "name" : "Tree6_1",
            "scale" : [
                1.3083618879318237,
                1.3083618879318237,
                1.3083618879318237
            ]
        }
    ],
    "materials" : [
        {
            "doubleSided" : true,
            "emissiveFactor" : [
                0,
                0,
                0
            ],
            "name" : "palette",
            "pbrMetallicRoughness" : {
                "baseColorTexture" : {
                    "index" : 0,
                    "texCoord" : 0
                },
                "metallicFactor" : 0,
                "roughnessFactor" : 0.5
            }
        }
    ],
    "meshes" : [
        {
            "name" : "Cube.005",
            "primitives" : [
                {
                    "attributes" : {
                        "POSITION" : 0,
                        "NORMAL" : 1,
                        "TEXCOORD_0" : 2
                    },
                    "indices" : 3,
                    "material" : 0
                }
            ]
        }
    ],
    "textures" : [
        {
            "source" : 0
        }
    ],
    "images" : [
        {
            "bufferView" : 4,
            "mimeType" : "image/png",
            "name" : "taiga"
        }
    ],
    "accessors" : [
        {
            "bufferView" : 0,
            "componentType" : 5126,
            "count" : 1458,
            "max" : [
                1.4969542026519775,
                5.199358940124512,
                0.908444881439209
            ],
            "min" : [
                -1.9754493236541748,
                -0.0013002809137105942,
                -1.1742254495620728
            ],
            "type" : "VEC3"
        },
        {
            "bufferView" : 1,
            "componentType" : 5126,
            "count" : 1458,
            "type" : "VEC3"
        },
        {
            "bufferView" : 2,
            "componentType" : 5126,
            "count" : 1458,
            "type" : "VEC2"
        },
        {
            "bufferView" : 3,
            "componentType" : 5123,
            "count" : 1458,
            "type" : "SCALAR"
        }
    ],
    "bufferViews" : [
        {
            "buffer" : 0,
            "byteLength" : 17496,
            "byteOffset" : 0
        },
        {
            "buffer" : 0,
            "byteLength" : 17496,
            "byteOffset" : 17496
        },
        {
            "buffer" : 0,
            "byteLength" : 11664,
            "byteOffset" : 34992
        },
        {
            "buffer" : 0,
            "byteLength" : 2916,
            "byteOffset" : 46656
        },
        {
            "buffer" : 0,
            "byteLength" : 134,
            "byteOffset" : 49572
        }
    ],
    "buffers" : [
        {
            "byteLength" : 49708,
            "uri" : "data:application/octet-stream;base64,"
        }
    ]
}
